<svg xmlns="http://www.w3.org/2000/svg" width="100" height="100" viewBox="0 0 100 100"><g fill="none" fill-rule="evenodd"><path fill="#FF9173" fill-rule="nonzero" d="M50.24 10a39.8 39.8 0 0 1 38.39 29.56l-19.2 5.22A19.9 19.9 0 0 0 50.24 30V10z"/><path fill="#EC707C" fill-rule="nonzero" d="M88.06 37.64A40.12 40.12 0 0 1 71.98 83.5L61.1 66.75a20.06 20.06 0 0 0 8.04-22.93l18.91-6.18z"/><path fill="#CD5687" fill-rule="nonzero" d="M73.61 82.36a39.58 39.58 0 0 1-48.32-1.21l12.48-15.58c6.99 5.67 16.9 5.92 24.16.61L73.6 82.36z"/><path fill="#A14790" fill-rule="nonzero" d="M26.87 82.36a40.14 40.14 0 0 1-13.78-46.6l18.57 7.12c-3.2 8.44-.37 17.99 6.9 23.3L26.87 82.36z"/><path fill="#684092" fill-rule="nonzero" d="M12.42 37.64A39.78 39.78 0 0 1 50.64 10l-.2 20a19.9 19.9 0 0 0-19.1 13.82l-18.92-6.18z"/></g></svg>